HIERARCHY
ROOT joint_Root
{
	OFFSET 0.0 0.0 0.0
	CHANNELS 6 Xposition Yposition Zposition Zrotation Xrotation Yrotation 
	JOINT Hips
	{
		OFFSET 4.5925 91.4895 -427.239
		CHANNELS 6 Xposition Yposition Zposition Zrotation Xrotation Yrotation 
		JOINT Spine
		{
			OFFSET 15.7357 0.0 0.0
			CHANNELS 6 Xposition Yposition Zposition Zrotation Xrotation Yrotation 
			JOINT Chest
			{
				OFFSET 8.98455 -0.406207 0.0
				CHANNELS 6 Xposition Yposition Zposition Zrotation Xrotation Yrotation 
				JOINT Neck
				{
					OFFSET 16.3773 0.0 0.0
					CHANNELS 6 Xposition Yposition Zposition Zrotation Xrotation Yrotation 
					JOINT Head
					{
						OFFSET 6.45672 0.0 0.0
						CHANNELS 6 Xposition Yposition Zposition Zrotation Xrotation Yrotation 
						End Site
						{
							OFFSET 0.0 0.0 0.0
						}
					}
				}
				JOINT Shoulder_L
				{
					OFFSET 12.9942 -0.242716 4.98039
					CHANNELS 6 Xposition Yposition Zposition Zrotation Xrotation Yrotation 
					JOINT UpperArm_L
					{
						OFFSET 5.34809 0.0 0.0
						CHANNELS 6 Xposition Yposition Zposition Zrotation Xrotation Yrotation 
						JOINT LowerArm_L
						{
							OFFSET 24.3286 1.87007e-05 0.0
							CHANNELS 6 Xposition Yposition Zposition Zrotation Xrotation Yrotation 
							JOINT Hand_L
							{
								OFFSET 22.2916 0.0 0.0
								CHANNELS 6 Xposition Yposition Zposition Zrotation Xrotation Yrotation 
								End Site
								{
									OFFSET 0.0 0.0 0.0
								}
							}
						}
					}
				}
				JOINT Shoulder_R
				{
					OFFSET 12.9945 -0.242716 -4.98039
					CHANNELS 6 Xposition Yposition Zposition Zrotation Xrotation Yrotation 
					JOINT UpperArm_R
					{
						OFFSET -5.34813 0.0 0.0
						CHANNELS 6 Xposition Yposition Zposition Zrotation Xrotation Yrotation 
						JOINT LowerArm_R
						{
							OFFSET -24.3289 0.000322201 0.0
							CHANNELS 6 Xposition Yposition Zposition Zrotation Xrotation Yrotation 
							JOINT Hand_R
							{
								OFFSET -22.2915 -0.000108084 0.0
								CHANNELS 6 Xposition Yposition Zposition Zrotation Xrotation Yrotation 
								End Site
								{
									OFFSET 0.0 0.0 0.0
								}
							}
						}
					}
				}
			}
		}
		JOINT UpperLeg_L
		{
			OFFSET -2.19248 -6.46944 0.0
			CHANNELS 6 Xposition Yposition Zposition Zrotation Xrotation Yrotation 
			JOINT LowerLeg_L
			{
				OFFSET 39.0811 0.0 -1.23785e-05
				CHANNELS 6 Xposition Yposition Zposition Zrotation Xrotation Yrotation 
				JOINT Foot_L
				{
					OFFSET 40.9854 0.0 -1.26872e-05
					CHANNELS 6 Xposition Yposition Zposition Zrotation Xrotation Yrotation 
					JOINT Toes_L
					{
						OFFSET 11.7543 0.0 0.0
						CHANNELS 6 Xposition Yposition Zposition Zrotation Xrotation Yrotation 
						End Site
						{
							OFFSET 0.0 0.0 0.0
						}
					}
				}
			}
		}
		JOINT UpperLeg_R
		{
			OFFSET -2.19251 6.46944 0.0
			CHANNELS 6 Xposition Yposition Zposition Zrotation Xrotation Yrotation 
			JOINT LowerLeg_R
			{
				OFFSET -39.0811 -0.00228153 -0.0401928
				CHANNELS 6 Xposition Yposition Zposition Zrotation Xrotation Yrotation 
				JOINT Foot_R
				{
					OFFSET -40.9854 0.0 0.0
					CHANNELS 6 Xposition Yposition Zposition Zrotation Xrotation Yrotation 
					JOINT Toes_R
					{
						OFFSET -11.7543 0.0 0.0
						CHANNELS 6 Xposition Yposition Zposition Zrotation Xrotation Yrotation 
						End Site
						{
							OFFSET 0.0 0.0 0.0
						}
					}
				}
			}
		}
	}
}
MOTION
Frames:	6
Frame Time:	0.0333333
0.000000 0.000000 0.000000 0.000000 0.000000 -0.000000 -0.958211 89.891100 -3.941780 89.087900 -2.771060 10.315300 15.735700 0.000005 -0.000001 89.090500 76.764200 -89.092300 8.984550 -0.406207 -0.000000 18.702500 -0.412088 0.064181 16.377300 -0.000001 -0.000001 3.185580 -2.879290 2.186470 6.456720 -0.000001 -0.000000 -7.364770 -2.140910 3.360740 12.994200 -0.242716 4.980390 -90.916000 4.951140 -79.504500 5.348090 -0.000007 -0.000001 -55.955100 34.960000 -33.130400 24.328600 0.000019 0.000005 7.504700 17.875700 -23.227500 22.291600 -0.000001 0.000005 8.648930 5.237780 1.753550 12.994500 -0.242716 -4.980390 89.386400 9.567790 -86.313400 -5.348130 -0.000001 -0.000004 -55.451600 34.991000 -27.453000 -24.328900 0.000322 -0.000009 1.231140 3.190040 -21.132600 -22.291500 -0.000108 -0.000004 16.275000 5.424300 -3.744350 -2.192480 -6.469440 -0.000000 -174.122000 -11.918700 -5.471230 39.081100 -0.000007 -0.000012 -0.213344 0.287477 36.580500 40.985400 -0.000006 -0.000013 -0.264537 4.173980 -70.464600 11.754300 -0.000000 0.000003 -0.000129 -0.001278 -16.626300 -2.192510 6.469440 -0.000001 176.302000 18.107400 175.549000 -39.081100 -0.002282 -0.040193 -0.107015 0.151769 36.009000 -40.985400 0.000008 0.000006 5.792460 10.813400 -71.663800 -11.754300 -0.000006 -0.000006 -0.001894 -0.027386 -17.686700
0.000000 0.000000 0.000000 0.000000 0.000000 -0.000000 -0.963158 89.885200 -3.929060 89.113500 -2.777630 10.307300 15.735700 0.000005 -0.000001 89.072400 76.775900 -89.090300 8.984550 -0.406207 -0.000000 18.679000 -0.421464 0.033410 16.377300 -0.000001 -0.000001 3.209760 -2.914960 2.224950 6.456720 -0.000001 -0.000000 -7.397340 -2.167110 3.336990 12.994200 -0.242716 4.980390 -90.889900 4.815280 -79.516900 5.348090 -0.000007 -0.000001 -56.280400 34.305900 -32.855400 24.328600 0.000019 0.000005 7.836030 17.531400 -24.554100 22.291600 -0.000001 0.000005 8.665440 5.240950 1.670740 12.994500 -0.242716 -4.980390 89.391900 9.481970 -86.313600 -5.348130 -0.000001 -0.000004 -55.568800 34.984600 -27.468200 -24.328900 0.000322 -0.000009 1.257340 3.260030 -21.120500 -22.291500 -0.000108 -0.000004 16.251000 5.425310 -3.778620 -2.192480 -6.469440 -0.000000 -174.145000 -11.927200 -5.479190 39.081100 -0.000007 -0.000012 -0.213907 0.288108 36.592600 40.985400 -0.000006 -0.000013 -0.277834 4.142620 -70.475400 11.754300 -0.000000 0.000003 -0.000123 -0.001225 -16.624400 -2.192510 6.469440 -0.000001 176.269000 18.101000 175.530000 -39.081100 -0.002282 -0.040193 -0.116161 0.164157 36.041700 -40.985400 0.000008 0.000006 5.747280 10.822300 -71.674800 -11.754300 -0.000006 -0.000006 -0.002019 -0.028957 -17.750600
0.000000 0.000000 0.000000 0.000000 0.000000 -0.000000 -0.978874 89.886000 -3.914750 89.134200 -2.805010 10.340700 15.735700 0.000005 -0.000001 89.132600 76.774600 -89.163700 8.984550 -0.406207 -0.000000 18.681900 -0.395477 0.002724 16.377300 -0.000001 -0.000001 3.248940 -2.968800 2.218550 6.456720 -0.000001 -0.000000 -7.421900 -2.248200 3.342570 12.994200 -0.242716 4.980390 -90.870600 4.717120 -79.530600 5.348090 -0.000007 -0.000001 -56.069100 33.782600 -32.832000 24.328600 0.000019 0.000005 8.340110 17.112400 -26.483100 22.291600 -0.000001 0.000005 8.841840 5.244210 1.585170 12.994500 -0.242716 -4.980390 89.389900 9.459840 -86.293200 -5.348130 -0.000001 -0.000004 -55.622900 34.920800 -27.459000 -24.328900 0.000322 -0.000009 1.259760 3.263370 -21.137800 -22.291500 -0.000108 -0.000004 16.182000 5.424920 -3.765630 -2.192480 -6.469440 -0.000000 -174.139000 -11.965300 -5.411110 39.081100 -0.000007 -0.000012 -0.214342 0.288926 36.570500 40.985400 -0.000006 -0.000013 -0.286180 4.150100 -70.481900 11.754300 -0.000000 0.000003 -0.000123 -0.001224 -16.624300 -2.192510 6.469440 -0.000001 176.258000 18.078100 175.567000 -39.081100 -0.002282 -0.040193 -0.110010 0.155619 36.056400 -40.985400 0.000008 0.000006 5.849230 10.803800 -71.718000 -11.754300 -0.000006 -0.000006 -0.002047 -0.029307 -17.764800
0.000000 0.000000 0.000000 0.000000 0.000000 -0.000000 -0.996066 89.883900 -3.908540 89.156900 -2.760340 10.346200 15.735700 0.000005 -0.000001 89.096400 76.784400 -89.132500 8.984550 -0.406207 -0.000000 18.662100 -0.412035 -0.004604 16.377300 -0.000001 -0.000001 3.283360 -3.023360 2.237840 6.456720 -0.000001 -0.000000 -7.434400 -2.281310 3.267610 12.994200 -0.242716 4.980390 -90.867800 4.695780 -79.517800 5.348090 -0.000007 -0.000001 -55.543300 33.072400 -33.032100 24.328600 0.000019 0.000005 9.031490 16.777000 -28.839900 22.291600 -0.000001 0.000005 9.100610 5.244110 1.587870 12.994500 -0.242716 -4.980390 89.387200 9.437290 -86.268100 -5.348130 -0.000001 -0.000004 -55.597500 34.942500 -27.443400 -24.328900 0.000322 -0.000009 1.177930 3.034570 -21.243900 -22.291500 -0.000108 -0.000004 16.100700 5.422300 -3.676780 -2.192480 -6.469440 -0.000000 -174.164000 -11.921500 -5.415480 39.081100 -0.000007 -0.000012 -0.210737 0.284093 36.568000 40.985400 -0.000006 -0.000013 -0.295593 4.148910 -70.473300 11.754300 -0.000000 0.000003 -0.000120 -0.001201 -16.623400 -2.192510 6.469440 -0.000001 176.233000 18.105700 175.577000 -39.081100 -0.002282 -0.040193 -0.113733 0.160687 36.064200 -40.985400 0.000008 0.000006 5.762930 10.778900 -71.709200 -11.754300 -0.000006 -0.000006 -0.001970 -0.028345 -17.725700
0.000000 0.000000 0.000000 0.000000 0.000000 -0.000000 -1.016530 89.885000 -3.908500 89.170600 -2.723780 10.373900 15.735700 0.000005 -0.000001 89.151100 76.783400 -89.198200 8.984550 -0.406207 -0.000000 18.664500 -0.388388 -0.030551 16.377300 -0.000001 -0.000001 3.309240 -3.071660 2.234880 6.456720 -0.000001 -0.000000 -7.444130 -2.352370 3.305300 12.994200 -0.242716 4.980390 -90.866100 4.655050 -79.447800 5.348090 -0.000007 -0.000001 -54.769200 32.211300 -33.501100 24.328600 0.000019 0.000005 9.774980 16.316900 -31.516700 22.291600 -0.000001 0.000005 9.543920 5.241850 1.647140 12.994500 -0.242716 -4.980390 89.379900 9.463010 -86.233800 -5.348130 -0.000001 -0.000004 -55.516800 34.976800 -27.435800 -24.328900 0.000322 -0.000009 1.159760 2.991480 -21.219700 -22.291500 -0.000108 -0.000004 16.153100 5.424470 -3.750340 -2.192480 -6.469440 -0.000000 -174.157000 -11.894900 -5.387960 39.081100 -0.000007 -0.000012 -0.211718 0.285582 36.552000 40.985400 -0.000006 -0.000013 -0.304550 4.182830 -70.457000 11.754300 -0.000000 0.000003 -0.000130 -0.001291 -16.626800 -2.192510 6.469440 -0.000001 176.222000 18.157400 175.609000 -39.081100 -0.002282 -0.040193 -0.111125 0.157093 36.066500 -40.985400 0.000008 0.000006 5.792220 10.784600 -71.719600 -11.754300 -0.000006 -0.000006 -0.001844 -0.026749 -17.660800
0.000000 0.000000 0.000000 0.000000 0.000000 -0.000000 -1.044170 89.891000 -3.902520 89.186300 -2.654350 10.400700 15.735700 0.000005 -0.000001 89.135200 76.785200 -89.188600 8.984550 -0.406207 -0.000000 18.660600 -0.396089 -0.041812 16.377300 -0.000001 -0.000001 3.343510 -3.082050 2.206540 6.456720 -0.000001 -0.000000 -7.455170 -2.407150 3.329180 12.994200 -0.242716 4.980390 -90.876400 4.657100 -79.330200 5.348090 -0.000007 -0.000001 -54.303600 30.708400 -33.907300 24.328600 0.000019 0.000005 10.642400 15.900400 -34.445500 22.291600 -0.000001 0.000005 9.785690 5.244260 1.583860 12.994500 -0.242716 -4.980390 89.375500 9.481150 -86.214200 -5.348130 -0.000001 -0.000004 -55.505700 34.914400 -27.377000 -24.328900 0.000322 -0.000009 1.193200 3.082950 -21.187200 -22.291500 -0.000108 -0.000004 16.141200 5.422750 -3.692040 -2.192480 -6.469440 -0.000000 -174.153000 -11.855200 -5.343550 39.081100 -0.000007 -0.000012 -0.213454 0.288360 36.510500 40.985400 -0.000006 -0.000013 -0.320006 4.204890 -70.433700 11.754300 -0.000000 0.000003 -0.000115 -0.001156 -16.621800 -2.192510 6.469440 -0.000001 176.217000 18.190700 175.657000 -39.081100 -0.002282 -0.040193 -0.104416 0.147914 36.060400 -40.985400 0.000008 0.000006 5.940330 10.730800 -71.765800 -11.754300 -0.000006 -0.000006 -0.001899 -0.027450 -17.689300
